<?xml version="1.0" encoding="utf-8"?>
<!-- Generator: Adobe Illustrator 19.1.0, SVG Export Plug-In . SVG Version: 6.00 Build 0)  -->
<svg version="1.1" id="Ebene_1" xmlns="http://www.w3.org/2000/svg" xmlns:xlink="http://www.w3.org/1999/xlink" x="0px" y="0px"
	 viewBox="0 0 212.6 28" enable-background="new 0 0 212.6 28" xml:space="preserve">
<g>
	<polygon fill-rule="evenodd" clip-rule="evenodd" fill="#E30613" points="0,28 212.6,28 212.6,0 0,0 0,28 	"/>
	<polygon fill-rule="evenodd" clip-rule="evenodd" fill="#FFFFFF" points="45.3,4.7 40.5,4.7 37.8,18.3 37.8,18.3 35.1,4.7 
		30.5,4.7 27.8,18.3 27.7,18.3 25.1,4.7 20.3,4.7 25.3,23.3 30.2,23.3 32.8,10.5 32.8,10.5 35.4,23.3 40.2,23.3 45.3,4.7 	"/>
	<path fill-rule="evenodd" clip-rule="evenodd" fill="#FFFFFF" d="M47,14c0,2.7,0.8,5,2.3,6.9c1.5,1.9,3.7,2.8,6.6,2.8
		c2.9,0,5-1,6.6-2.8c1.5-1.8,2.3-4.1,2.3-6.9c0-2.8-0.8-5.1-2.3-6.9c-1.5-1.8-3.7-2.8-6.6-2.8c-2.8,0-5,1-6.6,2.8
		C47.8,8.9,47,11.2,47,14L47,14z M51.7,14c0-1.4,0.3-2.7,1-3.8c0.6-1.1,1.7-1.7,3.2-1.7c1.5,0,2.6,0.6,3.3,1.7
		c0.6,1.1,0.9,2.4,0.9,3.8c0,1.4-0.3,2.7-0.9,3.8c-0.7,1.1-1.8,1.7-3.3,1.7c-1.5,0-2.6-0.6-3.2-1.7C52,16.7,51.7,15.4,51.7,14
		L51.7,14z"/>
	<polygon fill-rule="evenodd" clip-rule="evenodd" fill="#FFFFFF" points="67.9,23.3 81,23.3 81,19.1 72.6,19.1 72.6,4.7 67.9,4.7 
		67.9,23.3 	"/>
	<polygon fill-rule="evenodd" clip-rule="evenodd" fill="#FFFFFF" points="83.8,23.3 88.5,23.3 88.5,16.1 95.9,16.1 95.9,12.4 
		88.5,12.4 88.5,8.6 97,8.6 97,4.7 83.8,4.7 83.8,23.3 	"/>
	<polygon fill-rule="evenodd" clip-rule="evenodd" fill="#FFFFFF" points="99.7,23.3 104.4,23.3 104.4,16.1 111.8,16.1 111.8,12.4 
		104.4,12.4 104.4,8.6 112.9,8.6 112.9,4.7 99.7,4.7 99.7,23.3 	"/>
	<polygon fill-rule="evenodd" clip-rule="evenodd" fill="#FFFFFF" points="115.6,23.3 120.2,23.3 120.2,17.6 122.2,15.5 122.2,15.5 
		127,23.3 132.8,23.3 125.3,12 132,4.7 126.2,4.7 120.2,11.9 120.2,11.9 120.2,4.7 115.6,4.7 115.6,23.3 	"/>
	<path fill-rule="evenodd" clip-rule="evenodd" fill="#FFFFFF" d="M134.8,23.3h4.7v-6.8h3.6c0.6,0,1,0.1,1.4,0.3
		c0.3,0.2,0.6,0.5,0.8,0.9c0.2,0.4,0.3,0.8,0.4,1.2c0.1,0.4,0.1,0.9,0.1,1.4c0,0.3,0.1,0.8,0.1,1.4c0,0.3,0.1,0.6,0.1,0.9
		c0.1,0.3,0.1,0.5,0.2,0.7h4.6c-0.1-0.2-0.2-0.5-0.3-0.9c-0.1-0.4-0.2-0.8-0.2-1.2c-0.1-0.9-0.2-1.6-0.2-2.1
		c-0.1-0.9-0.3-1.8-0.6-2.7c-0.2-0.4-0.5-0.8-0.8-1.1c-0.3-0.3-0.7-0.5-1.2-0.6v-0.1c1-0.4,1.7-1,2.2-1.9c0.5-0.8,0.7-1.8,0.7-2.8
		c0-1.9-0.7-3.2-1.9-4c-1.2-0.8-2.7-1.2-4.4-1.2h-9.2V23.3L134.8,23.3z M139.5,8.6h3.7c0.7,0,1.2,0.2,1.7,0.5
		c0.4,0.3,0.7,0.8,0.7,1.5c0,1.4-0.8,2.2-2.2,2.2h-3.9V8.6L139.5,8.6z"/>
	<path fill-rule="evenodd" clip-rule="evenodd" fill="#FFFFFF" d="M160.8,9.9L160.8,9.9l2,6.5h-4.1L160.8,9.9L160.8,9.9z
		 M151.8,23.3h4.8l1.1-3.3h6.3l1.1,3.3h4.9l-6.7-18.6h-4.8L151.8,23.3L151.8,23.3z"/>
	<polygon fill-rule="evenodd" clip-rule="evenodd" fill="#FFFFFF" points="171.9,23.3 176.2,23.3 176.2,11.7 176.3,11.7 182.5,23.3 
		187.4,23.3 187.4,4.7 183,4.7 183,16.2 182.9,16.2 176.7,4.7 171.9,4.7 171.9,23.3 	"/>
</g>
</svg>
